<svg xmlns="http://www.w3.org/2000/svg" width="183" height="52" fill="none"><g clip-path="url(#clip0_2_4)" filter="url(#filter0_i_2_4)"><path fill="#E0942F" d="M120.487 29.47c-3.389-1.957-11.169.502-13.07 3.794-.894 1.462-.265 3.009 1.658 4.12 2.084 1.202 4.079.932 5.748 1.896 1.686.973 2.454 2.838 4.516 4.03 1.883 1.086 3.576.88 4.431-.601 1.864-3.312.107-11.283-3.283-13.24zm-5.976-4.165c.407-1.727-.413-3.474-1.828-3.895-1.415-.42-2.89.639-3.296 2.364-.408 1.73.412 3.478 1.827 3.899 1.415.42 2.888-.644 3.297-2.368zm4.127 1.204c1.517.416 3.184-.943 3.763-3.116.58-2.174-.241-4.168-1.741-4.624-1.518-.416-3.185.943-3.764 3.116-.556 2.136.217 4.208 1.742 4.624zm12.733 5.692c-1.093-.977-2.995-.851-4.287.364-1.292 1.216-1.474 3.022-.403 4.037 1.094.977 2.99.849 4.288-.364 1.291-1.218 1.435-3.044.402-4.037zm-7.396-2.61c1.086 1.087 3.305.746 4.875-.804 1.571-1.55 1.937-3.711.818-4.817-1.086-1.088-3.305-.747-4.876.803-1.572 1.55-1.938 3.712-.817 4.818z"/></g><g filter="url(#filter1_i_2_4)"><path fill="#FFC300" d="M10.22 27.448c-.754 0-1.422.148-2.006.445a3.987 3.987 0 00-1.46 1.256c-.39.55-.686 1.215-.889 1.994-.203.778-.304 1.654-.304 2.627 0 1.312.16 2.434.482 3.365.33.922.838 1.629 1.523 2.12.686.482 1.57.723 2.654.723.753 0 1.506-.084 2.26-.253.761-.17 1.586-.41 2.475-.724v3.3c-.82.34-1.63.58-2.425.724-.795.153-1.688.229-2.678.229-1.913 0-3.487-.394-4.723-1.18-1.227-.796-2.137-1.905-2.73-3.327-.592-1.43-.888-3.098-.888-5.002 0-1.405.19-2.691.571-3.86.38-1.167.94-2.179 1.676-3.033a7.401 7.401 0 012.73-1.98c1.083-.466 2.327-.7 3.732-.7.922 0 1.845.12 2.767.356.931.229 1.82.546 2.666.953l-1.27 3.199a21.005 21.005 0 00-2.094-.864 6.25 6.25 0 00-2.07-.368zM25.208 43l-1.345-4.418h-6.767L15.75 43h-4.24l6.55-18.637h4.812L29.45 43h-4.24zm-2.285-7.719l-1.345-4.316a49.779 49.779 0 00-.343-1.105 110.76 110.76 0 00-.42-1.383 33.242 33.242 0 01-.33-1.232c-.084.347-.203.779-.355 1.295a126.911 126.911 0 01-.71 2.425l-1.334 4.316h4.837zM33.887 43h-3.935V27.715h-5.04v-3.276h14.015v3.276h-5.04V43z"/><path fill="#E0942F" d="M49.76 43l-1.092-4.964a41.217 41.217 0 00-.292-1.308c-.135-.584-.283-1.206-.444-1.866-.152-.668-.296-1.286-.432-1.853l-.279-1.244h-.114c-.06.262-.153.677-.28 1.244-.127.567-.27 1.185-.431 1.853a2750.639 2750.639 0 01-.736 3.225L44.517 43h-4.164l-4.037-14.193h3.86l1.637 6.284c.11.44.216.965.317 1.574.102.6.19 1.185.267 1.752.084.559.148 1.003.19 1.333h.102c.017-.245.05-.571.101-.977.06-.407.123-.826.19-1.257l.204-1.181c.068-.355.118-.597.152-.724l1.752-6.804h4.266l1.663 6.804c.06.246.135.635.228 1.168.102.533.19 1.084.267 1.65.076.56.118 1 .127 1.321h.101a64.613 64.613 0 01.47-3.06c.119-.626.237-1.16.356-1.6l1.7-6.283h3.797L53.975 43H49.76zm21.42-7.122c0 1.185-.162 2.234-.483 3.148-.314.914-.775 1.689-1.384 2.324a5.82 5.82 0 01-2.184 1.422c-.846.321-1.803.482-2.869.482-.999 0-1.917-.16-2.755-.482a6.124 6.124 0 01-2.17-1.422c-.61-.635-1.084-1.41-1.422-2.324-.33-.914-.496-1.963-.496-3.148 0-1.574.28-2.907.838-4 .559-1.09 1.354-1.92 2.387-2.487 1.032-.567 2.264-.851 3.694-.851 1.33 0 2.505.284 3.53.85 1.032.568 1.84 1.397 2.424 2.489.593 1.092.89 2.425.89 3.999zm-9.814 0c0 .93.101 1.714.304 2.349.203.634.52 1.113.952 1.434.432.322.995.483 1.689.483.685 0 1.24-.161 1.663-.483.432-.322.745-.8.94-1.434.203-.635.304-1.418.304-2.35 0-.939-.101-1.717-.305-2.335-.194-.626-.507-1.096-.939-1.41-.432-.312-.995-.469-1.689-.469-1.024 0-1.768.351-2.234 1.054-.457.702-.685 1.756-.685 3.16zM80.22 28.54c.195 0 .42.013.673.038.262.017.474.042.635.076l-.292 3.631a2.347 2.347 0 00-.546-.089 5.495 5.495 0 00-.597-.038c-.5 0-.986.064-1.46.19a3.57 3.57 0 00-1.257.623 2.926 2.926 0 00-.888 1.117c-.212.457-.318 1.02-.318 1.688V43h-3.872V28.807h2.933l.571 2.386h.19c.28-.482.627-.922 1.042-1.32a4.975 4.975 0 011.434-.965 4.196 4.196 0 011.752-.368zm5.677-5.294v8.836c0 .533-.021 1.066-.064 1.6a102.7 102.7 0 01-.14 1.6h.052c.262-.373.529-.741.8-1.105.279-.364.575-.715.888-1.054l3.974-4.316h4.367l-5.637 6.157L96.117 43h-4.469l-4.088-5.751-1.663 1.333V43h-3.872V23.246h3.872zm20.073 15.54c0 .964-.228 1.78-.685 2.45-.449.66-1.122 1.163-2.019 1.51-.897.339-2.014.508-3.351.508-.99 0-1.841-.064-2.552-.19a10.515 10.515 0 01-2.133-.635v-3.2c.77.348 1.596.635 2.476.864.888.22 1.667.33 2.336.33.753 0 1.29-.11 1.612-.33.33-.229.495-.525.495-.889 0-.237-.068-.449-.203-.635-.127-.194-.406-.41-.838-.647-.432-.246-1.109-.563-2.031-.952-.889-.373-1.621-.75-2.197-1.13-.567-.381-.99-.83-1.27-1.346-.27-.525-.405-1.189-.405-1.993 0-1.312.508-2.298 1.523-2.958 1.024-.669 2.391-1.003 4.101-1.003.88 0 1.718.089 2.513.267.804.177 1.63.46 2.476.85l-1.168 2.793a19.782 19.782 0 00-1.993-.749 6.262 6.262 0 00-1.892-.292c-.567 0-.994.076-1.282.229-.288.152-.432.385-.432.698 0 .228.072.432.216.61.153.177.44.376.863.596.432.212 1.063.487 1.892.825.804.33 1.502.677 2.095 1.041.592.356 1.049.8 1.371 1.333.322.525.482 1.206.482 2.044z"/></g><path fill="#E0942F" d="M35.18 6.086L33.65 4.1s-.782-.695-.782.26c0 0 .51 2.236.38 2.8l1.932-1.074zm4.494-1.661c0-.955-.781-.26-.781-.26L37.362 6.15l1.932 1.075c-.13-.565.38-2.8.38-2.8z"/><path fill="#E79E2F" d="M38.694 10.311s1.328-1.457.6-3.168c0 0-1.038-1.637-2.92-1.676-1.282-.026-2.605.478-3.04 1.303-.497.945 0 2.084.261 3.04 0 0-.553.586-.98 1.014-.429.429-2.741 1.114-3.769 2.484-1.027 1.37-3.288 3.596-3.28 6.679 0 0 .14 2.312.105 3.829-.012.506 1.987 1.137 1.987 1.137h7.183s1.044-.231.941-.599c-.102-.368-.342-.428-.856-.514h-.856s.698-.614.942-1.455l.77 1.284s.603 1.123.771 1.284c.169.162.946.186 1.285 0 .338-.185.498-.993.342-1.284-.156-.29-.77-.428-.77-.428l-.258-5.909s2.056-3.168 1.542-7.021z"/><path fill="#E0942F" d="M39.117 6.676s-1.038-1.637-2.919-1.675c-1.282-.026-2.605.478-3.04 1.303-.497.945 0 2.084.261 3.039 0 0-.538.603-.981 1.015-2.189 2.035 4.538 6.508 4.538 6.508s2.055-3.168 1.541-7.021c0 0 1.328-1.457.6-3.169z"/><path fill="#E79E2F" d="M33.522 26.554c-.882.341-6.646 2.23-5.571-2.46l-2.28-.278s-.554 2.363.619 3.47c1.172 1.107 3.517 2.508 7.916-.56 0 0 .197-.514-.684-.172z"/><path fill="#E09C4B" d="M36.286 8.699c-.534 0-.967.414-.967.925 0 .512.433.926.967.926.535 0 .968-.414.968-.926 0-.51-.433-.925-.968-.925z"/><path fill="#EAAA54" d="M35.45 8.457c-.534 0-.967.414-.967.925 0 .512.433.927.967.927s.968-.415.968-.927c0-.51-.434-.925-.968-.925z"/><path fill="#EAAA54" d="M37.146 8.457c-.534 0-.967.414-.967.925 0 .512.433.927.967.927.535 0 .968-.415.968-.927 0-.51-.433-.925-.968-.925z"/><path fill="#BA5E20" d="M36.525 8.469h-.442s-.218.574-.218.713c0 .14.22.347.287.415.053.054.252.053.304 0 .063-.064.287-.286.287-.415 0-.128-.218-.713-.218-.713z"/><path fill="#DD8645" d="M36.525 8.469c-.053-.044-.374-.049-.442 0-.067.049-.218.574-.218.713 0 .14.878.13.878 0 0-.128-.165-.67-.218-.713z"/><path fill="#D37611" d="M35.014 7.347c-.262-.017-.589.213-.624.372-.03.17.291.526.552.556.33.037.697-.188.697-.347 0-.19-.236-.556-.625-.58z"/><path fill="#915412" d="M35.032 7.395c-.182-.006-.418.212-.448.356-.027.154.184.462.365.48.227.022.49-.193.497-.336.006-.17-.145-.491-.414-.5z"/><path fill="#352E28" d="M35.006 7.584c-.066 0-.12.162-.12.228s.054.185.12.185.12-.119.12-.185-.054-.228-.12-.228z"/><path fill="#D37611" d="M38.199 7.72c-.035-.16-.362-.39-.625-.373-.388.025-.624.392-.624.581 0 .159.367.384.697.347.26-.03.582-.386.552-.556z"/><path fill="#915412" d="M38.005 7.751c-.03-.144-.266-.362-.448-.356-.27.009-.42.33-.414.5.006.143.27.358.497.336.18-.018.392-.326.365-.48z"/><path fill="#352E28" d="M37.583 7.584c-.066 0-.12.162-.12.228s.053.185.12.185c.066 0 .119-.119.119-.185s-.053-.228-.12-.228z"/><path fill="#CB872C" d="M30.816 15.932s1.52.89 2.584 2.822a21.314 21.314 0 011.593 3.688l.019-.057c-.592-5.411-4.196-6.453-4.196-6.453z"/><defs><filter id="filter0_i_2_4" width="25.036" height="25.302" x="107.017" y="18.694" color-interpolation-filters="sRGB" filterUnits="userSpaceOnUse"><feFlood flood-opacity="0" result="BackgroundImageFix"/><feBlend in="SourceGraphic" in2="BackgroundImageFix" result="shape"/><feColorMatrix in="SourceAlpha" result="hardAlpha" values="0 0 0 0 0 0 0 0 0 0 0 0 0 0 0 0 0 0 127 0"/><feOffset dy="1"/><feComposite in2="hardAlpha" k2="-1" k3="1" operator="arithmetic"/><feColorMatrix values="0 0 0 0 0 0 0 0 0 0 0 0 0 0 0 0 0 0 0.11 0"/><feBlend in2="shape" result="effect1_innerShadow_2_4"/></filter><filter id="filter1_i_2_4" width="104.46" height="20.008" x="1.511" y="23.246" color-interpolation-filters="sRGB" filterUnits="userSpaceOnUse"><feFlood flood-opacity="0" result="BackgroundImageFix"/><feBlend in="SourceGraphic" in2="BackgroundImageFix" result="shape"/><feColorMatrix in="SourceAlpha" result="hardAlpha" values="0 0 0 0 0 0 0 0 0 0 0 0 0 0 0 0 0 0 127 0"/><feOffset dx=".5" dy=".7"/><feComposite in2="hardAlpha" k2="-1" k3="1" operator="arithmetic"/><feColorMatrix values="0 0 0 0 0 0 0 0 0 0 0 0 0 0 0 0 0 0 0.08 0"/><feBlend in2="shape" result="effect1_innerShadow_2_4"/></filter><clipPath id="clip0_2_4"><path fill="#fff" d="M0 0h25.879v25.753H0z" transform="rotate(30 33.18 220.862)"/></clipPath></defs></svg>