<svg xmlns="http://www.w3.org/2000/svg" width="131" height="41" fill="none"><g filter="url(#filter0_i_2_2)"><path fill="#E0942F" d="M118.976 25.614c-3.389-1.957-11.169.502-13.07 3.794-.894 1.462-.265 3.01 1.658 4.12 2.084 1.202 4.079.932 5.748 1.896 1.686.973 2.454 2.838 4.516 4.03 1.883 1.086 3.576.88 4.431-.6 1.864-3.313.107-11.284-3.283-13.24zM113 21.45c.407-1.727-.413-3.474-1.828-3.895-1.415-.42-2.89.64-3.296 2.364-.408 1.73.412 3.478 1.827 3.9 1.415.42 2.888-.645 3.297-2.369zm4.127 1.204c1.517.416 3.184-.943 3.763-3.116.58-2.174-.241-4.168-1.741-4.624-1.518-.416-3.185.943-3.764 3.116-.556 2.136.217 4.208 1.742 4.624zm12.733 5.692c-1.093-.977-2.995-.85-4.287.364-1.292 1.216-1.474 3.022-.403 4.037 1.094.977 2.99.85 4.288-.364 1.291-1.218 1.435-3.044.402-4.037zm-7.396-2.61c1.086 1.087 3.305.746 4.875-.804 1.571-1.55 1.937-3.71.818-4.817-1.086-1.088-3.305-.747-4.876.803-1.572 1.55-1.938 3.712-.817 4.818z"/></g><g filter="url(#filter1_i_2_2)"><path fill="#FFC300" d="M8.709 23.592c-.754 0-1.422.148-2.006.445a3.987 3.987 0 00-1.46 1.256c-.39.55-.686 1.215-.889 1.994-.203.778-.304 1.654-.304 2.627 0 1.312.16 2.434.482 3.365.33.922.838 1.63 1.523 2.12.686.482 1.57.723 2.654.723.753 0 1.506-.084 2.26-.253.761-.17 1.586-.41 2.475-.724v3.3c-.82.34-1.63.58-2.425.724-.795.153-1.688.23-2.678.23-1.913 0-3.487-.395-4.723-1.18-1.227-.797-2.137-1.906-2.73-3.328C.296 33.461 0 31.793 0 29.89c0-1.405.19-2.69.571-3.86.38-1.167.94-2.179 1.676-3.033a7.4 7.4 0 012.73-1.98c1.083-.466 2.327-.7 3.732-.7.922 0 1.845.12 2.767.356.931.23 1.82.546 2.666.953l-1.27 3.2a20.996 20.996 0 00-2.094-.865 6.25 6.25 0 00-2.07-.368h.001zm14.988 15.552l-1.345-4.418h-6.767l-1.346 4.418h-4.24l6.55-18.637h4.812l6.578 18.637h-4.242zm-2.285-7.719l-1.345-4.316c-.11-.37-.224-.738-.343-1.105a110.76 110.76 0 00-.42-1.383 33.17 33.17 0 01-.33-1.232c-.084.347-.203.78-.355 1.295-.229.81-.465 1.62-.71 2.425l-1.334 4.316h4.837zm10.964 7.72h-3.935V23.858h-5.04v-3.276h14.015v3.276h-5.04v15.285z"/><path fill="#E0942F" d="M48.249 39.144l-1.092-4.964a41.217 41.217 0 00-.292-1.308c-.135-.584-.283-1.206-.444-1.866-.152-.668-.296-1.286-.432-1.853l-.279-1.244h-.114c-.06.262-.153.677-.28 1.244-.127.567-.27 1.185-.431 1.853l-.736 3.225-1.143 4.913h-4.164l-4.037-14.193h3.86l1.637 6.284c.11.44.216.965.317 1.574.102.6.19 1.185.267 1.752.084.56.148 1.003.19 1.333h.102c.017-.245.05-.57.101-.977.06-.407.123-.826.19-1.257l.204-1.18c.068-.356.118-.598.152-.725l1.752-6.804h4.266l1.663 6.804c.06.246.135.635.228 1.168.102.533.19 1.084.267 1.65.076.56.118 1 .127 1.321h.101c.132-1.023.289-2.044.47-3.06.119-.626.237-1.16.356-1.6l1.7-6.283h3.797l-4.088 14.193h-4.215zm21.42-7.122c0 1.185-.162 2.234-.483 3.148-.314.914-.775 1.69-1.384 2.324a5.82 5.82 0 01-2.184 1.422c-.846.321-1.803.482-2.869.482-.999 0-1.917-.16-2.755-.482a6.125 6.125 0 01-2.17-1.422c-.61-.635-1.084-1.41-1.422-2.324-.33-.914-.496-1.963-.496-3.148 0-1.574.28-2.907.838-4 .559-1.09 1.354-1.92 2.387-2.487 1.032-.567 2.264-.85 3.694-.85 1.33 0 2.505.283 3.53.85 1.032.567 1.84 1.396 2.424 2.488.593 1.092.89 2.425.89 4zm-9.814 0c0 .93.101 1.714.304 2.35.203.633.52 1.112.952 1.433.432.322.995.483 1.689.483.685 0 1.24-.16 1.663-.483.432-.322.745-.8.94-1.434.203-.635.304-1.418.304-2.35 0-.939-.101-1.717-.305-2.335-.194-.626-.507-1.096-.939-1.41-.432-.312-.995-.469-1.689-.469-1.024 0-1.768.351-2.234 1.054-.457.702-.685 1.756-.685 3.16v.001zm18.854-7.338c.195 0 .42.013.673.038.262.017.474.042.635.076l-.292 3.631a2.344 2.344 0 00-.546-.089 5.491 5.491 0 00-.597-.038c-.5 0-.986.064-1.46.19a3.57 3.57 0 00-1.257.623 2.926 2.926 0 00-.888 1.117c-.212.457-.318 1.02-.318 1.688v7.224h-3.872V24.951h2.933l.571 2.386h.19c.28-.482.627-.922 1.042-1.32.418-.403.903-.73 1.434-.965a4.195 4.195 0 011.752-.368zm5.677-5.294v8.836c0 .533-.021 1.066-.064 1.6s-.09 1.067-.14 1.6h.052c.262-.373.529-.74.8-1.105.279-.364.575-.715.888-1.054l3.974-4.316h4.367l-5.637 6.157 5.98 8.036h-4.469l-4.088-5.75-1.663 1.332v4.418h-3.872V19.39h3.872zm20.073 15.54c0 .964-.228 1.78-.685 2.45-.449.66-1.122 1.163-2.019 1.51-.897.34-2.014.508-3.351.508-.99 0-1.841-.064-2.552-.19a10.514 10.514 0 01-2.133-.635v-3.2c.77.348 1.596.635 2.476.864.888.22 1.667.33 2.336.33.753 0 1.29-.11 1.612-.33.33-.229.495-.525.495-.889 0-.237-.068-.449-.203-.635-.127-.194-.406-.41-.838-.647-.432-.246-1.109-.563-2.031-.952-.889-.373-1.621-.75-2.197-1.13-.567-.38-.99-.83-1.27-1.346-.27-.525-.405-1.189-.405-1.993 0-1.312.508-2.298 1.523-2.958 1.024-.669 2.391-1.003 4.101-1.003.88 0 1.718.09 2.513.267.804.177 1.63.46 2.476.85l-1.168 2.793a19.76 19.76 0 00-1.993-.749 6.264 6.264 0 00-1.892-.292c-.567 0-.994.076-1.282.23-.288.151-.432.384-.432.697 0 .228.072.432.216.61.153.177.44.376.863.596.432.212 1.063.487 1.892.825.804.33 1.502.677 2.095 1.041.592.356 1.049.8 1.371 1.333.322.525.482 1.206.482 2.044v.001z"/></g><path fill="#E0942F" d="M33.669 2.23L32.139.244s-.782-.695-.782.26c0 0 .51 2.236.38 2.8l1.932-1.074zM38.163.57c0-.956-.781-.26-.781-.26l-1.531 1.984 1.932 1.075c-.13-.565.38-2.8.38-2.8z"/><path fill="#E79E2F" d="M37.183 6.455s1.328-1.457.6-3.168c0 0-1.038-1.637-2.92-1.676-1.282-.026-2.605.478-3.04 1.303-.497.945 0 2.084.261 3.04 0 0-.553.586-.98 1.014-.429.43-2.741 1.114-3.769 2.484-1.027 1.37-3.288 3.596-3.28 6.68 0 0 .14 2.311.105 3.828-.012.506 1.987 1.137 1.987 1.137h7.183s1.044-.23.941-.599c-.102-.368-.342-.428-.856-.514h-.856s.698-.614.942-1.455l.77 1.284s.603 1.123.771 1.284c.169.162.946.186 1.285 0 .338-.185.498-.993.342-1.284-.156-.29-.77-.428-.77-.428l-.258-5.909s2.056-3.168 1.542-7.02z"/><path fill="#E0942F" d="M37.606 2.82s-1.038-1.637-2.919-1.675c-1.282-.026-2.605.478-3.04 1.303-.497.945 0 2.084.261 3.04 0 0-.538.602-.981 1.014-2.189 2.035 4.538 6.508 4.538 6.508s2.055-3.168 1.541-7.02c0 0 1.328-1.458.6-3.17z"/><path fill="#E79E2F" d="M32.011 22.698c-.882.341-6.646 2.23-5.571-2.46l-2.28-.278s-.554 2.363.619 3.47c1.172 1.107 3.517 2.508 7.916-.56 0 0 .197-.514-.684-.172z"/><path fill="#E09C4B" d="M34.775 4.843c-.534 0-.967.414-.967.925 0 .512.433.926.967.926.535 0 .968-.414.968-.926 0-.51-.433-.925-.968-.925z"/><path fill="#EAAA54" d="M33.939 4.601c-.534 0-.967.414-.967.925 0 .512.433.927.967.927s.968-.415.968-.927c0-.51-.434-.925-.968-.925z"/><path fill="#EAAA54" d="M35.635 4.601c-.534 0-.967.414-.967.925 0 .512.433.927.967.927.535 0 .968-.415.968-.927 0-.51-.433-.925-.968-.925z"/><path fill="#BA5E20" d="M35.014 4.613h-.442s-.218.574-.218.713c0 .14.22.347.287.415.053.054.252.053.304 0 .063-.064.287-.286.287-.415 0-.128-.218-.713-.218-.713z"/><path fill="#DD8645" d="M35.014 4.613c-.053-.044-.374-.049-.442 0-.067.05-.218.574-.218.713 0 .14.878.13.878 0 0-.128-.165-.67-.218-.713z"/><path fill="#D37611" d="M33.503 3.491c-.262-.017-.589.213-.624.372-.03.17.291.526.552.556.33.037.697-.188.697-.347 0-.19-.236-.556-.625-.58z"/><path fill="#915412" d="M33.521 3.54c-.182-.007-.418.211-.448.355-.027.154.184.462.365.48.227.022.49-.193.497-.336.006-.17-.145-.49-.414-.5z"/><path fill="#352E28" d="M33.495 3.728c-.066 0-.12.162-.12.228s.054.185.12.185.12-.119.12-.185-.054-.228-.12-.228z"/><path fill="#D37611" d="M36.688 3.864c-.035-.16-.362-.39-.625-.373-.388.025-.624.392-.624.581 0 .16.367.384.697.347.26-.03.582-.386.552-.556v.001z"/><path fill="#915412" d="M36.494 3.895c-.03-.144-.266-.362-.448-.356-.27.01-.42.33-.414.5.006.143.27.358.497.336.18-.018.392-.326.365-.48z"/><path fill="#352E28" d="M36.072 3.728c-.066 0-.12.162-.12.228s.053.185.12.185c.066 0 .119-.119.119-.185s-.053-.228-.12-.228h.001z"/><path fill="#CB872C" d="M29.305 12.076s1.52.89 2.584 2.822a21.313 21.313 0 011.593 3.688l.019-.057c-.592-5.41-4.196-6.453-4.196-6.453z"/><defs><filter id="filter0_i_2_2" width="25.036" height="26.302" x="105.506" y="14.838" color-interpolation-filters="sRGB" filterUnits="userSpaceOnUse"><feFlood flood-opacity="0" result="BackgroundImageFix"/><feBlend in="SourceGraphic" in2="BackgroundImageFix" result="shape"/><feColorMatrix in="SourceAlpha" result="hardAlpha" values="0 0 0 0 0 0 0 0 0 0 0 0 0 0 0 0 0 0 127 0"/><feOffset dy="1"/><feGaussianBlur stdDeviation="2"/><feComposite in2="hardAlpha" k2="-1" k3="1" operator="arithmetic"/><feColorMatrix values="0 0 0 0 0 0 0 0 0 0 0 0 0 0 0 0 0 0 0.11 0"/><feBlend in2="shape" result="effect1_innerShadow_2_2"/></filter><filter id="filter1_i_2_2" width="104.959" height="20.708" x="0" y="19.39" color-interpolation-filters="sRGB" filterUnits="userSpaceOnUse"><feFlood flood-opacity="0" result="BackgroundImageFix"/><feBlend in="SourceGraphic" in2="BackgroundImageFix" result="shape"/><feColorMatrix in="SourceAlpha" result="hardAlpha" values="0 0 0 0 0 0 0 0 0 0 0 0 0 0 0 0 0 0 127 0"/><feOffset dx=".5" dy=".7"/><feGaussianBlur stdDeviation="2"/><feComposite in2="hardAlpha" k2="-1" k3="1" operator="arithmetic"/><feColorMatrix values="0 0 0 0 0 0 0 0 0 0 0 0 0 0 0 0 0 0 0.08 0"/><feBlend in2="shape" result="effect1_innerShadow_2_2"/></filter></defs></svg>