<svg xmlns="http://www.w3.org/2000/svg" width="36" height="36" fill="none"><g clip-path="url(#clip0_7_2)" filter="url(#filter0_i_7_2)"><path fill="#E0942F" d="M18.487 16.47c-3.389-1.957-11.17.502-13.07 3.795-.894 1.46-.265 3.008 1.658 4.118 2.084 1.203 4.078.933 5.748 1.897 1.686.973 2.454 2.838 4.516 4.03 1.883 1.086 3.576.88 4.431-.601 1.864-3.312.107-11.283-3.283-13.24zm-5.976-4.165c.407-1.726-.413-3.474-1.828-3.895-1.415-.42-2.89.639-3.296 2.364-.408 1.73.412 3.478 1.827 3.899 1.415.42 2.888-.644 3.297-2.368zm4.127 1.204c1.517.416 3.184-.943 3.763-3.116.58-2.174-.24-4.168-1.741-4.624-1.518-.416-3.185.943-3.764 3.116-.556 2.136.217 4.209 1.742 4.624zm12.733 5.692c-1.093-.977-2.995-.851-4.287.364-1.292 1.216-1.474 3.022-.403 4.037 1.094.977 2.99.849 4.288-.364 1.291-1.218 1.435-3.044.402-4.037zm-7.396-2.61c1.086 1.087 3.305.746 4.875-.804 1.571-1.55 1.937-3.711.818-4.818-1.086-1.087-3.305-.746-4.876.804-1.572 1.55-1.938 3.712-.817 4.818z"/></g><defs><clipPath id="clip0_7_2"><path fill="#fff" d="M0 0h25.879v25.753H0z" transform="rotate(30 6.438 24.028)"/></clipPath><filter id="filter0_i_7_2" width="25.036" height="25.302" x="5.017" y="5.694" color-interpolation-filters="sRGB" filterUnits="userSpaceOnUse"><feFlood flood-opacity="0" result="BackgroundImageFix"/><feBlend in="SourceGraphic" in2="BackgroundImageFix" result="shape"/><feColorMatrix in="SourceAlpha" result="hardAlpha" values="0 0 0 0 0 0 0 0 0 0 0 0 0 0 0 0 0 0 127 0"/><feOffset dy="1"/><feComposite in2="hardAlpha" k2="-1" k3="1" operator="arithmetic"/><feColorMatrix values="0 0 0 0 0 0 0 0 0 0 0 0 0 0 0 0 0 0 0.11 0"/><feBlend in2="shape" result="effect1_innerShadow_7_2"/></filter></defs></svg>